<svg xmlns="http://www.w3.org/2000/svg" xmlns:xlink="http://www.w3.org/1999/xlink" width="50" height="50" viewBox="0 0 50 50">
  <defs>
    <clipPath id="clip-path">
      <rect id="Rectangle_1594" data-name="Rectangle 1594" width="50" height="50" transform="translate(148 96)" fill="#dfdfdf"/>
    </clipPath>
  </defs>
  <g id="Mask_Group_1" data-name="Mask Group 1" transform="translate(-148 -96)" clip-path="url(#clip-path)">
    <g id="adobe-xd" transform="translate(148 96.625)">
      <path id="Path_158" data-name="Path 158" d="M41.146,48.75H8.854A8.846,8.846,0,0,1,0,39.9V8.854A8.846,8.846,0,0,1,8.854,0H41.146A8.846,8.846,0,0,1,50,8.854V39.9A8.846,8.846,0,0,1,41.146,48.75Z" fill="#ff26be"/>
      <path id="Path_159" data-name="Path 159" d="M40.354,46.666H9.646A7.575,7.575,0,0,1,2.084,39.1V9.646A7.575,7.575,0,0,1,9.646,2.084H40.334A7.561,7.561,0,0,1,47.9,9.646V39.084a7.55,7.55,0,0,1-7.542,7.582Z" fill="#2e001f"/>
      <path id="Path_160" data-name="Path 160" d="M19.77,22.812,25.6,34.02c.1.166.042.334-.126.334H21.852a.408.408,0,0,1-.438-.27c-1.334-2.75-2.688-5.5-4.084-8.458h-.042c-1.25,2.792-2.626,5.73-3.958,8.48a.4.4,0,0,1-.376.23H9.52c-.208,0-.23-.166-.124-.292L15.1,23.168l-5.52-11a.168.168,0,0,1,.124-.292h3.584c.208,0,.292.042.374.23,1.312,2.75,2.646,5.584,3.9,8.354H17.6c1.208-2.75,2.542-5.6,3.834-8.334.1-.166.166-.27.376-.27h3.354c.166,0,.23.126.126.292Zm6.856,3.4c0-4.854,3.23-8.646,8.354-8.646a9.184,9.184,0,0,1,1.084.042v-5.52a.208.208,0,0,1,.208-.208h3.292c.166,0,.208.062.208.166V31.168a14.879,14.879,0,0,0,.1,2.042c0,.126-.042.166-.166.23a12.4,12.4,0,0,1-5.334,1.208c-4.522.018-7.752-2.772-7.75-8.44Zm9.436-5.332a3.132,3.132,0,0,0-1.208-.208c-2.626,0-4.458,2.02-4.458,5.376,0,3.834,1.876,5.376,4.23,5.376a3.906,3.906,0,0,0,1.438-.23V20.876Z" fill="#ffd9f2"/>
    </g>
  </g>
</svg>
