<svg xmlns="http://www.w3.org/2000/svg" xmlns:xlink="http://www.w3.org/1999/xlink" width="50" height="50" viewBox="0 0 50 50">
  <defs>
    <clipPath id="clip-path">
      <rect id="Rectangle_1597" data-name="Rectangle 1597" width="50" height="50" transform="translate(352 96)" fill="#dfdfdf"/>
    </clipPath>
  </defs>
  <g id="Mask_Group_4" data-name="Mask Group 4" transform="translate(-352 -96)" clip-path="url(#clip-path)">
    <g id="bootstrap-4" transform="translate(352 96)">
      <path id="Path_177" data-name="Path 177" d="M0,43.553A6.447,6.447,0,0,0,6.447,50H43.553A6.447,6.447,0,0,0,50,43.553V6.447A6.447,6.447,0,0,0,43.553,0H6.447A6.447,6.447,0,0,0,0,6.447V43.553Z" fill="#563d7c"/>
      <path id="Path_178" data-name="Path 178" d="M20.734,22.117V15.036h6.233a9.7,9.7,0,0,1,1.717.148,4.286,4.286,0,0,1,1.463.53,2.826,2.826,0,0,1,1.018,1.06,3.52,3.52,0,0,1,.382,1.738A3.2,3.2,0,0,1,30.4,21.269a4.785,4.785,0,0,1-2.926.848H20.734ZM14.077,9.863V40.137h14.67a15.478,15.478,0,0,0,3.964-.509,10.6,10.6,0,0,0,3.434-1.569,7.727,7.727,0,0,0,2.4-2.735,8.33,8.33,0,0,0,.89-3.964,8.389,8.389,0,0,0-1.378-4.855,7.277,7.277,0,0,0-4.177-2.82,7.545,7.545,0,0,0,3.074-2.5,6.632,6.632,0,0,0,1.039-3.816,8.12,8.12,0,0,0-.7-3.562A5.818,5.818,0,0,0,35.319,11.5a8.509,8.509,0,0,0-3.053-1.251,18.847,18.847,0,0,0-3.943-.382H14.077Zm6.657,25.1v-8.31h7.25a5.609,5.609,0,0,1,3.477,1,3.914,3.914,0,0,1,1.314,3.328,4.161,4.161,0,0,1-.4,1.95,3.2,3.2,0,0,1-1.081,1.208,4.579,4.579,0,0,1-1.569.636,8.9,8.9,0,0,1-1.866.191H20.734Z" fill="#fff"/>
    </g>
  </g>
</svg>
